<svg enable-background="new 0 0 64 64" viewBox="0 0 64 64" xmlns="http://www.w3.org/2000/svg"><circle cx="32" cy="32" fill="#76c2af" r="32"/><path d="m48 32c0-8.8-7.2-16-16-16-7.5 0-13.8 5.2-15.5 12.1-4.8.8-8.5 4.9-8.5 9.9 0 5.5 4.5 10 10 10h8c1.1 0 2-.9 2-2v-5.5c0-.8-.7-1.5-1.5-1.5h-3.1c-1.5 0-1.9-1-.9-2.2l7.7-9.8c1-1.2 2.6-1.2 3.5 0l7.7 9.8c1 1.2.6 2.2-.9 2.2h-3.1c-.8 0-1.5.7-1.5 1.5v5.5c0 1.1.9 2 2 2h10c4.4 0 8-3.6 8-8s-3.5-8-7.9-8z" fill="#231f20" opacity=".2"/><path d="m48 30c0-8.8-7.2-16-16-16-7.5 0-13.8 5.2-15.5 12.1-4.8.8-8.5 4.9-8.5 9.9 0 5.5 4.5 10 10 10h8c1.1 0 2-.9 2-2v-5.5c0-.8-.7-1.5-1.5-1.5h-3.1c-1.5 0-1.9-1-.9-2.2l7.7-9.8c1-1.2 2.6-1.2 3.5 0l7.7 9.8c1 1.2.6 2.2-.9 2.2h-3.1c-.8 0-1.5.7-1.5 1.5v5.5c0 1.1.9 2 2 2h10c4.4 0 8-3.6 8-8s-3.5-8-7.9-8z" fill="#fff"/></svg>